# 3ds Max Wavefront OBJ Exporter v0.97b - (c)2007 guruware
# File Created: 27.02.2016 01:30:47

#
# object Grapling
#

v  -0.0647 -0.0324 0.0000
v  -0.0395 -0.0324 0.0000
v  -0.0395 -0.0324 0.0361
v  -0.0647 -0.0324 0.0361
v  -0.0647 -0.0324 0.0667
v  -0.0395 -0.0324 0.0667
v  -0.0395 0.0324 0.1203
v  -0.0647 0.0324 0.0667
v  -0.1183 0.0324 0.0361
v  -0.1183 0.0324 0.0000
v  -0.0647 0.1794 0.0667
v  -0.0395 0.1794 0.1203
v  -0.0395 0.1794 0.0361
v  -0.1183 0.1794 0.0361
v  -0.1183 0.1794 0.0000
v  0.0647 -0.0324 0.0000
v  0.0647 -0.0324 0.0361
v  0.0395 -0.0324 0.0361
v  0.0395 -0.0324 0.0000
v  0.0647 -0.0324 0.0667
v  0.0647 0.0324 0.0667
v  0.0395 0.0324 0.1203
v  0.0395 -0.0324 0.0667
v  0.1183 0.0324 0.0000
v  0.1183 0.0324 0.0361
v  0.0647 0.1794 0.0667
v  0.1183 0.1794 0.0361
v  0.0395 0.1794 0.0361
v  0.0395 0.1794 0.1203
v  0.1183 0.1794 0.0000
v  -0.0647 -0.0324 -0.0361
v  -0.0395 -0.0324 -0.0361
v  -0.0647 -0.0324 -0.0667
v  -0.0647 0.0324 -0.0667
v  -0.0395 0.0324 -0.1203
v  -0.0395 -0.0324 -0.0667
v  -0.1183 0.0324 -0.0361
v  -0.0647 0.1794 -0.0667
v  -0.1183 0.1794 -0.0361
v  -0.0395 0.1794 -0.0361
v  -0.0395 0.1794 -0.1203
v  0.0395 -0.0324 -0.0361
v  0.0647 -0.0324 -0.0361
v  0.0647 -0.0324 -0.0667
v  0.0395 -0.0324 -0.0667
v  0.0395 0.0324 -0.1203
v  0.0647 0.0324 -0.0667
v  0.1183 0.0324 -0.0361
v  0.0647 0.1794 -0.0667
v  0.0395 0.1794 -0.1203
v  0.0395 0.1794 -0.0361
v  0.1183 0.1794 -0.0361
v  0.0000 -0.0324 0.0000
v  0.0000 -0.0324 0.0361
v  0.0000 -0.0324 0.0667
v  0.0000 0.0324 0.1203
v  0.0000 0.1794 0.1203
v  0.0000 -0.0324 -0.0361
v  0.0000 0.0324 -0.1203
v  0.0000 -0.0324 -0.0667
v  0.0000 0.1794 -0.1203
v  0.0000 0.1794 0.0361
v  0.0000 0.1794 0.0000
v  -0.0395 0.1794 0.0000
v  0.0395 0.1794 0.0000
v  0.0000 0.1794 -0.0361
v  -0.0395 0.2480 -0.0361
v  -0.0395 0.2480 0.0000
v  -0.0395 0.2480 0.0361
v  0.0395 0.2480 0.0361
v  0.0395 0.2480 0.0000
v  0.0000 0.2480 -0.0361
v  0.0395 0.2480 -0.0361
v  0.0000 0.2480 0.0361
v  -0.2168 0.2924 0.0361
v  -0.2168 0.2924 0.0000
v  -0.1380 0.3610 0.0000
v  -0.1380 0.3610 0.0361
v  0.2168 0.2924 0.0361
v  0.1380 0.3610 0.0361
v  0.1380 0.3610 0.0000
v  0.2168 0.2924 0.0000
v  -0.2168 0.2924 -0.0361
v  -0.1380 0.3610 -0.0361
v  0.2168 0.2924 -0.0361
v  0.1380 0.3610 -0.0361
v  0.0000 0.3667 -0.1328
v  -0.0395 0.3667 -0.1328
v  -0.0395 0.2981 -0.2171
v  0.0000 0.2981 -0.2171
v  0.0395 0.2981 -0.2171
v  0.0395 0.3667 -0.1328
v  -0.0395 0.2981 0.2171
v  -0.0395 0.3667 0.1328
v  0.0000 0.3667 0.1328
v  0.0000 0.2981 0.2171
v  0.0395 0.3667 0.1328
v  0.0395 0.2981 0.2171
v  0.0000 0.3928 0.2943
v  -0.0395 0.3928 0.2943
v  -0.2971 0.3845 0.0361
v  -0.2971 0.3845 0.0000
v  0.2971 0.3845 0.0361
v  0.2971 0.3845 0.0000
v  -0.2971 0.3845 -0.0361
v  0.2971 0.3845 -0.0361
v  0.0395 0.3928 0.2943
v  -0.0395 0.3928 -0.2943
v  0.0000 0.3928 -0.2943
v  0.0395 0.3928 -0.2943
v  0.0000 0.5905 -0.2624
v  0.0395 0.5905 -0.2624
v  -0.2679 0.5826 0.0361
v  -0.2679 0.5826 0.0000
v  -0.0395 0.5905 -0.2624
v  0.0000 0.5905 0.2624
v  0.0395 0.5905 0.2624
v  0.2679 0.5826 0.0000
v  0.2679 0.5826 0.0361
v  -0.2679 0.5826 -0.0361
v  -0.0395 0.5905 0.2624
v  0.2679 0.5826 -0.0361
# 122 vertices

vn -0.4253 -0.9050 0.0000
vn 0.0000 -1.0000 0.0000
vn -0.5157 -0.8479 0.1227
vn -0.6362 -0.6775 0.3690
vn 0.0000 -0.9050 0.4253
vn -0.4599 -0.2515 0.8516
vn -0.7748 -0.0853 0.6265
vn -0.8432 -0.2894 0.4531
vn -0.9407 -0.3392 0.0000
vn -0.4581 0.7818 0.4230
vn -0.7243 -0.1090 0.6808
vn -0.0000 1.0000 0.0000
vn -0.6919 -0.1005 0.7150
vn -0.9365 -0.3507 0.0000
vn 0.4253 -0.9050 0.0000
vn 0.5157 -0.8479 0.1227
vn 0.6362 -0.6775 0.3690
vn 0.7748 -0.0853 0.6265
vn 0.4599 -0.2515 0.8516
vn 0.9407 -0.3392 0.0000
vn 0.8432 -0.2894 0.4531
vn 0.4581 0.7818 0.4230
vn 0.6919 -0.1005 0.7150
vn 0.0000 1.0000 0.0000
vn 0.7243 -0.1090 0.6808
vn 0.9365 -0.3507 0.0000
vn -0.5157 -0.8479 -0.1227
vn -0.6362 -0.6775 -0.3690
vn -0.7748 -0.0853 -0.6265
vn -0.4599 -0.2515 -0.8516
vn 0.0000 -0.9050 -0.4253
vn -0.8432 -0.2894 -0.4531
vn -0.4581 0.7818 -0.4230
vn -0.6919 -0.1005 -0.7150
vn 0.0000 1.0000 -0.0000
vn -0.7243 -0.1090 -0.6808
vn 0.5157 -0.8479 -0.1227
vn 0.6362 -0.6775 -0.3690
vn 0.4599 -0.2515 -0.8516
vn 0.7748 -0.0853 -0.6265
vn 0.8432 -0.2894 -0.4531
vn 0.4581 0.7818 -0.4230
vn 0.7243 -0.1090 -0.6808
vn 0.6919 -0.1005 -0.7150
vn 0.0000 -0.3392 0.9407
vn 0.0000 -0.3352 0.9421
vn 0.0000 -0.3392 -0.9407
vn 0.0000 -0.3352 -0.9421
vn 0.0000 0.7071 -0.7071
vn 0.7071 0.7071 0.0000
vn -0.7071 0.7071 0.0000
vn 0.0000 0.7071 0.7071
vn 0.1430 0.9741 0.1750
vn 0.9365 0.3507 0.0000
vn 0.1430 0.9741 -0.1750
vn -0.1430 0.9741 -0.1750
vn -0.9365 0.3507 0.0000
vn 0.0000 0.3352 0.9421
vn -0.1430 0.9741 0.1750
vn 0.0000 0.3352 -0.9421
vn -0.5331 -0.4645 0.7071
vn -0.7539 -0.6569 0.0000
vn 0.8119 0.5838 0.0000
vn 0.5560 0.3998 0.7287
vn 0.5331 -0.4645 0.7071
vn -0.5560 0.3998 0.7287
vn -0.8119 0.5838 0.0000
vn 0.7539 -0.6569 0.0000
vn -0.5331 -0.4645 -0.7071
vn 0.5560 0.3998 -0.7287
vn 0.5331 -0.4645 -0.7071
vn -0.5560 0.3998 -0.7287
vn 0.0000 0.5681 0.8229
vn -0.7254 0.3910 0.5664
vn -0.7071 -0.4466 -0.5482
vn 0.0000 -0.6317 -0.7752
vn 0.7071 -0.4466 -0.5482
vn 0.7254 0.3910 0.5664
vn -0.7071 -0.4466 0.5482
vn -0.7254 0.3910 -0.5664
vn 0.0000 0.5681 -0.8229
vn 0.0000 -0.6317 0.7752
vn 0.7254 0.3910 -0.5664
vn 0.7071 -0.4466 0.5482
vn 0.0000 -0.2589 0.9659
vn -0.6255 -0.2020 0.7536
vn -0.7499 -0.2198 0.6239
vn -0.9596 -0.2813 0.0000
vn 0.7499 -0.2198 0.6239
vn 0.9596 -0.2813 0.0000
vn -0.7499 -0.2198 -0.6239
vn 0.7499 -0.2198 -0.6239
vn 0.6255 -0.2020 0.7536
vn -0.6255 -0.2020 -0.7536
vn 0.0000 -0.2589 -0.9659
vn 0.6255 -0.2020 -0.7536
vn 0.0000 0.9834 -0.1814
vn 0.5445 0.8248 -0.1521
vn -0.1599 0.8235 0.5444
vn -0.1906 0.9817 0.0000
vn -0.5445 0.8248 -0.1521
vn 0.0000 0.9834 0.1814
vn 0.5445 0.8248 0.1521
vn 0.1906 0.9817 0.0000
vn 0.1599 0.8235 0.5444
vn -0.1599 0.8235 -0.5444
vn -0.5445 0.8248 0.1521
vn 0.1599 0.8235 -0.5444
# 108 vertex normals

vt 0.4351 0.5781 0.0000
vt 0.4506 0.5659 0.0000
vt 0.4659 0.5811 0.0000
vt 0.4525 0.5939 0.0000
vt 0.4695 0.6035 0.0000
vt 0.4814 0.5930 0.0000
vt 0.5107 0.6339 0.0000
vt 0.4631 0.6402 0.0000
vt 0.4137 0.6319 0.0000
vt 0.3903 0.6152 0.0000
vt 0.4636 0.7179 0.0000
vt 0.5447 0.7112 0.0000
vt 0.4575 0.7423 0.0000
vt 0.3791 0.6955 0.0000
vt 0.3398 0.6640 0.0000
vt 0.5151 0.5168 0.0000
vt 0.5290 0.5362 0.0000
vt 0.5128 0.5457 0.0000
vt 0.4994 0.5286 0.0000
vt 0.5358 0.5539 0.0000
vt 0.5763 0.5561 0.0000
vt 0.5593 0.5982 0.0000
vt 0.5222 0.5624 0.0000
vt 0.5617 0.4833 0.0000
vt 0.5760 0.5087 0.0000
vt 0.6621 0.5732 0.0000
vt 0.6470 0.4881 0.0000
vt 0.6960 0.5744 0.0000
vt 0.6346 0.6471 0.0000
vt 0.6157 0.4447 0.0000
vt 0.4208 0.5602 0.0000
vt 0.4370 0.5497 0.0000
vt 0.4134 0.5432 0.0000
vt 0.3731 0.5452 0.0000
vt 0.3907 0.5014 0.0000
vt 0.4273 0.5338 0.0000
vt 0.3746 0.5925 0.0000
vt 0.2897 0.5461 0.0000
vt 0.3023 0.6293 0.0000
vt 0.2552 0.5557 0.0000
vt 0.3183 0.4664 0.0000
vt 0.4843 0.5128 0.0000
vt 0.4981 0.5000 0.0000
vt 0.4811 0.4900 0.0000
vt 0.4689 0.5009 0.0000
vt 0.4391 0.4614 0.0000
vt 0.4882 0.4528 0.0000
vt 0.5391 0.4638 0.0000
vt 0.4900 0.3716 0.0000
vt 0.3996 0.3865 0.0000
vt 0.4996 0.3355 0.0000
vt 0.5811 0.4032 0.0000
vt 0.4750 0.5472 0.0000
vt 0.4889 0.5629 0.0000
vt 0.5009 0.5766 0.0000
vt 0.5355 0.6167 0.0000
vt 0.5918 0.6822 0.0000
vt 0.4611 0.5316 0.0000
vt 0.4143 0.4808 0.0000
vt 0.4491 0.5184 0.0000
vt 0.3554 0.4235 0.0000
vt 0.4145 0.1349 0.0000
vt 0.4465 0.1306 0.0000
vt 0.4603 0.1612 0.0000
vt 0.4233 0.1630 0.0000
vt 0.4711 0.1271 0.0000
vt 0.4911 0.1546 0.0000
vt 0.4387 0.1833 0.0000
vt 0.4710 0.1888 0.0000
vt 0.5072 0.1891 0.0000
vt 0.2200 0.5311 0.0000
vt 0.0664 0.5991 0.0000
vt 0.0822 0.5742 0.0000
vt 0.1382 0.6062 0.0000
vt 0.1055 0.6188 0.0000
vt 0.4481 0.7815 0.0000
vt 0.7400 0.5641 0.0000
vt 0.5101 0.0885 0.0000
vt 0.5353 0.1108 0.0000
vt 0.4348 0.2362 0.0000
vt 0.4232 0.2030 0.0000
vt 0.1753 0.5945 0.0000
vt 0.0978 0.5496 0.0000
vt 0.4469 0.2719 0.0000
vt 0.5606 0.1308 0.0000
vt 0.5604 0.2846 0.0000
vt 0.4670 0.8054 0.0000
vt 0.8384 0.6265 0.0000
vt 0.8485 0.6605 0.0000
vt 0.8207 0.6475 0.0000
vt 0.8032 0.6384 0.0000
vt 0.8223 0.6072 0.0000
vt 0.7734 0.6116 0.0000
vt 0.3057 0.7933 0.0000
vt 0.2763 0.7681 0.0000
vt 0.0959 0.7411 0.0000
vt 0.0600 0.7463 0.0000
vt 0.3740 0.8841 0.0000
vt 0.7621 0.4288 0.0000
vt 0.8543 0.4983 0.0000
vt 0.5639 0.2453 0.0000
vt 0.5696 0.2104 0.0000
vt 0.7232 0.1949 0.0000
vt 0.7142 0.2260 0.0000
vt 0.7369 0.3990 0.0000
vt 0.2431 0.7496 0.0000
vt 0.1317 0.7368 0.0000
vt 0.7191 0.3650 0.0000
vt 0.7073 0.2577 0.0000
vt 0.2860 0.1893 0.0000
vt 0.2891 0.1523 0.0000
vt 0.1415 0.4523 0.0000
vt 0.2131 0.3851 0.0000
vt 0.2364 0.3558 0.0000
vt 0.2560 0.3252 0.0000
vt 0.2824 0.2263 0.0000
vt 0.6321 0.8064 0.0000
vt 0.5759 0.9042 0.0000
vt 0.4441 0.8379 0.0000
vt 0.5618 0.9388 0.0000
vt 0.6625 0.7789 0.0000
vt 0.8405 0.7162 0.0000
vt 0.8093 0.7234 0.0000
vt 0.6986 0.7570 0.0000
vt 0.7167 0.8420 0.0000
vt 0.6975 0.8575 0.0000
vt 0.2544 0.8557 0.0000
vt 0.2367 0.8414 0.0000
vt 0.8324 0.3830 0.0000
vt 0.8150 0.3658 0.0000
vt 0.2176 0.8264 0.0000
vt 0.7981 0.3462 0.0000
vt 0.7375 0.8250 0.0000
vt 0.1093 0.3491 0.0000
vt 0.1217 0.3242 0.0000
vt 0.1488 0.3040 0.0000
vt 0.0272 0.1724 0.0000
vt 0.0534 0.1859 0.0000
vt 0.1231 0.9980 0.0000
vt 0.1282 0.9719 0.0000
vt 0.1515 0.0019 0.0000
vt 0.1792 0.0279 0.0000
vt 0.0272 0.1386 0.0000
vt 0.0019 0.1111 0.0000
vt 0.8411 0.9871 0.0000
vt 0.8292 0.9631 0.0000
vt 0.9610 0.2728 0.0000
vt 0.9881 0.2663 0.0000
vt 0.1334 0.9479 0.0000
vt 0.8155 0.9740 0.0000
vt 0.9367 0.2804 0.0000
# 151 texture coords

g Grapling
f 1/1/1 2/2/2 3/3/2 
f 1/1/1 3/3/2 4/4/3 
f 5/5/4 6/6/5 7/7/6 
f 5/5/4 7/7/6 8/8/7 
f 1/1/1 4/4/3 9/9/8 
f 1/1/1 9/9/8 10/10/9 
f 11/11/10 12/12/11 13/13/12 
f 11/11/10 13/13/12 14/14/13 
f 10/10/9 9/9/8 14/14/13 
f 10/10/9 14/14/13 15/15/14 
f 8/8/7 7/7/6 12/12/11 
f 8/8/7 12/12/11 11/11/10 
f 16/16/15 17/17/16 18/18/2 
f 16/16/15 18/18/2 19/19/2 
f 20/20/17 21/21/18 22/22/19 
f 20/20/17 22/22/19 23/23/5 
f 16/16/15 24/24/20 25/25/21 
f 16/16/15 25/25/21 17/17/16 
f 26/26/22 27/27/23 28/28/24 
f 26/26/22 28/28/24 29/29/25 
f 24/24/20 30/30/26 27/27/23 
f 24/24/20 27/27/23 25/25/21 
f 21/21/18 26/26/22 29/29/25 
f 21/21/18 29/29/25 22/22/19 
f 1/1/1 31/31/27 32/32/2 
f 1/1/1 32/32/2 2/2/2 
f 33/33/28 34/34/29 35/35/30 
f 33/33/28 35/35/30 36/36/31 
f 1/1/1 10/10/9 37/37/32 
f 1/1/1 37/37/32 31/31/27 
f 38/38/33 39/39/34 40/40/35 
f 38/38/33 40/40/35 41/41/36 
f 10/10/9 15/15/14 39/39/34 
f 10/10/9 39/39/34 37/37/32 
f 34/34/29 38/38/33 41/41/36 
f 34/34/29 41/41/36 35/35/30 
f 16/16/15 19/19/2 42/42/2 
f 16/16/15 42/42/2 43/43/37 
f 44/44/38 45/45/31 46/46/39 
f 44/44/38 46/46/39 47/47/40 
f 16/16/15 43/43/37 48/48/41 
f 16/16/15 48/48/41 24/24/20 
f 49/49/42 50/50/43 51/51/24 
f 49/49/42 51/51/24 52/52/44 
f 24/24/20 48/48/41 52/52/44 
f 24/24/20 52/52/44 30/30/26 
f 47/47/40 46/46/39 50/50/43 
f 47/47/40 50/50/43 49/49/42 
f 4/4/3 3/3/2 6/6/5 
f 4/4/3 6/6/5 5/5/4 
f 4/4/3 5/5/4 8/8/7 
f 4/4/3 8/8/7 9/9/8 
f 9/9/8 8/8/7 11/11/10 
f 9/9/8 11/11/10 14/14/13 
f 17/17/16 20/20/17 23/23/5 
f 17/17/16 23/23/5 18/18/2 
f 17/17/16 25/25/21 21/21/18 
f 17/17/16 21/21/18 20/20/17 
f 25/25/21 27/27/23 26/26/22 
f 25/25/21 26/26/22 21/21/18 
f 31/31/27 33/33/28 36/36/31 
f 31/31/27 36/36/31 32/32/2 
f 31/31/27 37/37/32 34/34/29 
f 31/31/27 34/34/29 33/33/28 
f 37/37/32 39/39/34 38/38/33 
f 37/37/32 38/38/33 34/34/29 
f 43/43/37 42/42/2 45/45/31 
f 43/43/37 45/45/31 44/44/38 
f 43/43/37 44/44/38 47/47/40 
f 43/43/37 47/47/40 48/48/41 
f 48/48/41 47/47/40 49/49/42 
f 48/48/41 49/49/42 52/52/44 
f 2/2/2 53/53/2 54/54/2 
f 2/2/2 54/54/2 3/3/2 
f 6/6/5 55/55/5 56/56/45 
f 6/6/5 56/56/45 7/7/6 
f 7/7/6 56/56/45 57/57/46 
f 7/7/6 57/57/46 12/12/11 
f 19/19/2 18/18/2 54/54/2 
f 19/19/2 54/54/2 53/53/2 
f 23/23/5 22/22/19 56/56/45 
f 23/23/5 56/56/45 55/55/5 
f 22/22/19 29/29/25 57/57/46 
f 22/22/19 57/57/46 56/56/45 
f 2/2/2 32/32/2 58/58/2 
f 2/2/2 58/58/2 53/53/2 
f 36/36/31 35/35/30 59/59/47 
f 36/36/31 59/59/47 60/60/31 
f 35/35/30 41/41/36 61/61/48 
f 35/35/30 61/61/48 59/59/47 
f 19/19/2 53/53/2 58/58/2 
f 19/19/2 58/58/2 42/42/2 
f 45/45/31 60/60/31 59/59/47 
f 45/45/31 59/59/47 46/46/39 
f 46/46/39 59/59/47 61/61/48 
f 46/46/39 61/61/48 50/50/43 
f 3/3/2 54/54/2 55/55/5 
f 3/3/2 55/55/5 6/6/5 
f 13/62/12 62/63/49 63/64/24 
f 13/62/12 63/64/24 64/65/50 
f 18/18/2 23/23/5 55/55/5 
f 18/18/2 55/55/5 54/54/2 
f 28/66/24 65/67/51 63/64/24 
f 28/66/24 63/64/24 62/63/49 
f 32/32/2 36/36/31 60/60/31 
f 32/32/2 60/60/31 58/58/2 
f 40/68/35 64/65/50 63/64/24 
f 40/68/35 63/64/24 66/69/52 
f 42/42/2 58/58/2 60/60/31 
f 42/42/2 60/60/31 45/45/31 
f 51/70/24 66/69/52 63/64/24 
f 51/70/24 63/64/24 65/67/51 
f 41/41/36 40/40/35 67/71/53 
f 13/72/12 64/73/50 68/74/54 
f 13/72/12 68/74/54 69/75/55 
f 14/14/13 13/13/12 69/76/55 
f 28/28/24 27/27/23 70/77/56 
f 65/67/51 28/66/24 70/78/56 
f 65/67/51 70/78/56 71/79/57 
f 40/68/35 66/69/52 72/80/58 
f 40/68/35 72/80/58 67/81/53 
f 40/40/35 39/39/34 67/82/53 
f 64/73/50 40/83/35 67/82/53 
f 64/73/50 67/82/53 68/74/54 
f 51/51/24 50/50/43 73/84/59 
f 51/70/24 65/67/51 71/79/57 
f 51/70/24 71/79/57 73/85/59 
f 52/52/44 51/51/24 73/86/59 
f 13/13/12 12/12/11 69/87/55 
f 62/88/49 13/89/12 69/90/55 
f 62/88/49 69/90/55 74/91/60 
f 66/69/52 51/70/24 73/84/59 
f 66/69/52 73/84/59 72/80/58 
f 28/92/24 62/88/49 74/91/60 
f 28/92/24 74/91/60 70/93/56 
f 29/29/25 28/28/24 70/93/56 
f 15/15/14 14/14/13 75/94/61 
f 15/15/14 75/94/61 76/95/62 
f 69/75/55 68/74/54 77/96/63 
f 69/75/55 77/96/63 78/97/64 
f 14/14/13 69/76/55 78/98/64 
f 14/14/13 78/98/64 75/94/61 
f 70/77/56 27/27/23 79/99/65 
f 70/77/56 79/99/65 80/100/66 
f 71/101/57 70/102/56 80/103/66 
f 71/101/57 80/103/66 81/104/67 
f 27/27/23 30/30/26 82/105/68 
f 27/27/23 82/105/68 79/99/65 
f 67/82/53 39/39/34 83/106/69 
f 67/82/53 83/106/69 84/107/70 
f 68/74/54 67/82/53 84/107/70 
f 68/74/54 84/107/70 77/96/63 
f 39/39/34 15/15/14 76/95/62 
f 39/39/34 76/95/62 83/106/69 
f 30/30/26 52/52/44 85/108/71 
f 30/30/26 85/108/71 82/105/68 
f 73/86/59 71/101/57 81/104/67 
f 73/86/59 81/104/67 86/109/72 
f 52/52/44 73/86/59 86/109/72 
f 52/52/44 86/109/72 85/108/71 
f 67/81/53 72/80/58 87/110/73 
f 67/81/53 87/110/73 88/111/74 
f 41/41/36 67/71/53 88/112/74 
f 41/41/36 88/112/74 89/113/75 
f 61/61/48 41/41/36 89/113/75 
f 61/61/48 89/113/75 90/114/76 
f 73/84/59 50/50/43 91/115/77 
f 73/84/59 91/115/77 92/116/78 
f 72/80/58 73/84/59 92/116/78 
f 72/80/58 92/116/78 87/110/73 
f 50/50/43 61/61/48 90/114/76 
f 50/50/43 90/114/76 91/115/77 
f 69/87/55 12/12/11 93/117/79 
f 69/87/55 93/117/79 94/118/80 
f 74/119/60 69/87/55 94/118/80 
f 74/119/60 94/118/80 95/120/81 
f 12/12/11 57/57/46 96/121/82 
f 12/12/11 96/121/82 93/117/79 
f 70/93/56 74/91/60 95/122/81 
f 70/93/56 95/122/81 97/123/83 
f 29/29/25 70/93/56 97/123/83 
f 29/29/25 97/123/83 98/124/84 
f 57/57/46 29/29/25 98/124/84 
f 57/57/46 98/124/84 96/121/82 
f 93/117/79 96/121/82 99/125/85 
f 93/117/79 99/125/85 100/126/86 
f 76/95/62 75/94/61 101/127/87 
f 76/95/62 101/127/87 102/128/88 
f 75/94/61 78/98/64 101/127/87 
f 80/100/66 79/99/65 103/129/89 
f 79/99/65 82/105/68 104/130/90 
f 79/99/65 104/130/90 103/129/89 
f 94/118/80 93/117/79 100/126/86 
f 84/107/70 83/106/69 105/131/91 
f 83/106/69 76/95/62 102/128/88 
f 83/106/69 102/128/88 105/131/91 
f 82/105/68 85/108/71 106/132/92 
f 82/105/68 106/132/92 104/130/90 
f 85/108/71 86/109/72 106/132/92 
f 96/121/82 98/124/84 107/133/93 
f 96/121/82 107/133/93 99/125/85 
f 89/113/75 88/112/74 108/134/94 
f 90/114/76 89/113/75 108/134/94 
f 90/114/76 108/134/94 109/135/95 
f 92/116/78 91/115/77 110/136/96 
f 98/124/84 97/123/83 107/133/93 
f 91/115/77 90/114/76 109/135/95 
f 91/115/77 109/135/95 110/136/96 
f 110/136/96 109/135/95 111/137/97 
f 110/136/96 111/137/97 112/138/98 
f 101/127/87 78/98/64 113/139/99 
f 102/128/88 101/127/87 113/139/99 
f 102/128/88 113/139/99 114/140/100 
f 78/97/64 77/96/63 114/140/100 
f 78/97/64 114/140/100 113/139/99 
f 109/141/95 108/142/94 115/143/101 
f 109/141/95 115/143/101 111/144/97 
f 97/123/83 95/122/81 116/145/102 
f 97/123/83 116/145/102 117/146/103 
f 107/133/93 97/123/83 117/146/103 
f 99/125/85 107/133/93 117/146/103 
f 99/125/85 117/146/103 116/145/102 
f 87/110/73 92/116/78 112/138/98 
f 87/110/73 112/138/98 111/137/97 
f 103/129/89 104/130/90 118/147/104 
f 103/129/89 118/147/104 119/148/105 
f 80/100/66 103/129/89 119/148/105 
f 81/104/67 80/103/66 119/148/105 
f 81/104/67 119/148/105 118/147/104 
f 92/116/78 110/136/96 112/138/98 
f 105/131/91 102/128/88 114/140/100 
f 105/131/91 114/140/100 120/149/106 
f 84/107/70 105/131/91 120/149/106 
f 77/96/63 84/107/70 120/149/106 
f 77/96/63 120/149/106 114/140/100 
f 108/142/94 88/111/74 115/143/101 
f 94/118/80 100/126/86 121/150/107 
f 95/120/81 94/118/80 121/150/107 
f 95/120/81 121/150/107 116/145/102 
f 100/126/86 99/125/85 116/145/102 
f 100/126/86 116/145/102 121/150/107 
f 88/111/74 87/110/73 111/137/97 
f 88/111/74 111/137/97 115/143/101 
f 106/132/92 86/109/72 122/151/108 
f 104/130/90 106/132/92 122/151/108 
f 104/130/90 122/151/108 118/147/104 
f 86/109/72 81/104/67 118/147/104 
f 86/109/72 118/147/104 122/151/108 
# 248 faces

